<?xml version="1.0" encoding="utf-8"?>
<!-- Generator: Adobe Illustrator 16.0.3, SVG Export Plug-In . SVG Version: 6.00 Build 0)  -->
<!DOCTYPE svg PUBLIC "-//W3C//DTD SVG 1.1//EN" "http://www.w3.org/Graphics/SVG/1.1/DTD/svg11.dtd">
<svg version="1.1" id="レイヤー_1" xmlns="http://www.w3.org/2000/svg" xmlns:xlink="http://www.w3.org/1999/xlink" x="0px"
	 y="0px" width="277.505px" height="87.017px" viewBox="0 0 277.505 87.017" enable-background="new 0 0 277.505 87.017"
	 xml:space="preserve">
<g opacity="0.3">
	<path fill="#984A42" d="M24.482,86.942c-1.377,0.218-2.551-0.042-3.52-0.779c-0.971-0.736-1.765-1.652-2.384-2.74
		c-0.618-1.091-1.086-2.167-1.403-3.23c-0.318-1.063-0.509-1.813-0.578-2.248c-0.379-2.39-0.619-4.484-0.718-6.289
		c-0.102-1.803-0.186-3.627-0.255-5.473l-0.068-0.436c-0.069-0.434-0.227-0.835-0.47-1.206c-0.245-0.368-0.48-0.796-0.704-1.279
		c-0.023-0.146-0.059-0.25-0.106-0.318c-0.049-0.065-0.077-0.135-0.088-0.208c-0.08-0.507,0.092-1.054,0.52-1.642
		c0.377-0.431,0.926-0.833,1.646-1.208c0.72-0.373,1.369-0.606,1.949-0.698c0.289-0.046,0.591-0.019,0.904,0.079
		c0.167,0.123,0.263,0.256,0.286,0.4c0.081,0.508-0.003,1.152-0.251,1.934c-0.213,1-0.342,1.596-0.385,1.786
		c-0.044,0.193,0.015,0.797,0.176,1.81c0.092,0.581,0.574,1.284,1.448,2.11c0.873,0.827,1.852,1.618,2.938,2.374
		c1.084,0.758,2.059,1.4,2.923,1.932c0.864,0.532,1.367,0.785,1.513,0.763c0.251-1.228,0.684-2.948,1.299-5.162
		c0.613-2.213,1.276-4.601,1.983-7.163c0.708-2.563,1.43-5.033,2.167-7.416c0.737-2.381,1.346-4.39,1.83-6.025
		c0.236-0.854,0.379-1.581,0.434-2.185c0.052-0.602,0.056-1.049,0.01-1.339c-0.046-0.288-0.12-0.518-0.22-0.688
		c-0.101-0.168-0.195-0.284-0.278-0.346c0.007-0.892,0.498-2.361,1.473-4.41c0.974-2.047,2.21-4.21,3.706-6.489
		c1.494-2.277,3.074-4.254,4.741-5.931c1.665-1.672,3.221-2.626,4.67-2.855c0.435-0.068,1.143-0.051,2.125,0.053
		c0.981,0.105,1.954,0.379,2.915,0.82c0.961,0.442,1.593,1.158,1.899,2.148l0.069,0.435c0.023,0.146-0.002,0.224-0.074,0.234
		c-0.073,0.012-0.229-0.036-0.469-0.148c-0.24-0.109-0.506-0.143-0.794-0.098c-1.668,0.265-3.348,1.366-5.045,3.307
		c-1.697,1.938-3.363,4.431-4.997,7.474s-3.17,6.35-4.609,9.918c-1.439,3.57-2.77,7.121-3.992,10.656
		c-1.222,3.535-2.288,6.767-3.197,9.695c-0.911,2.928-1.631,5.288-2.164,7.081c2.593,1.371,5.254,2.229,7.981,2.577
		c2.728,0.347,5.432,0.31,8.112-0.115c4.346-0.688,8.522-2.204,12.533-4.548c4.009-2.343,7.669-5.131,10.981-8.366
		c3.311-3.233,5.986-6.609,8.029-10.127c2.469-4.103,4.176-8.197,5.126-12.284c0.948-4.084,1.142-7.9,0.58-11.451
		c-0.643-4.055-2.234-7.534-4.772-10.438c-2.539-2.899-6.043-4.98-10.511-6.241c-4.47-1.259-9.927-1.378-16.373-0.356
		c-4.636,0.734-9.338,1.98-14.108,3.738c-4.771,1.759-9.299,3.867-13.587,6.33c-4.287,2.461-8.075,5.159-11.358,8.092
		c-3.285,2.934-5.778,5.946-7.478,9.037c-1.701,3.092-2.316,6.121-1.845,9.091c0.287,1.811,1.081,3.077,2.384,3.798
		c1.301,0.723,2.711,1.186,4.229,1.39c1.517,0.206,2.708,0.462,3.574,0.771c0.614,0.125,0.944,0.333,0.99,0.622
		c0.069,0.434-0.296,0.715-1.092,0.841c-0.869,0.138-2.063,0.104-3.58-0.101c-1.519-0.204-3.07-0.627-4.656-1.267
		c-1.588-0.64-2.933-1.521-4.039-2.646c-1.107-1.122-1.688-2.572-1.746-4.344c-0.023-0.146-0.101-0.392-0.229-0.744
		c-0.13-0.351-0.218-0.671-0.264-0.961c-0.551-3.477-0.036-6.788,1.544-9.934c1.58-3.146,3.954-6.085,7.124-8.814
		c3.168-2.729,6.865-5.169,11.091-7.325c4.225-2.154,8.741-3.982,13.552-5.489c4.811-1.503,9.606-2.635,14.387-3.393
		c4.273-0.677,8.692-1.023,13.255-1.042c4.563-0.017,8.874,0.599,12.934,1.848c4.058,1.252,7.493,3.363,10.302,6.332
		c2.81,2.971,4.634,7.101,5.471,12.386c0.918,5.796,0.48,11.358-1.31,16.691c-1.791,5.334-4.569,10.173-8.335,14.519
		c-3.766,4.347-8.15,7.956-13.153,10.826c-5.002,2.871-10.256,4.743-15.76,5.615c-3.694,0.585-7.335,0.697-10.917,0.338
		c-3.584-0.361-6.799-1.317-9.644-2.871c-0.111,0.24-0.354,0.93-0.731,2.064c-0.376,1.136-0.85,2.362-1.422,3.678
		c-0.571,1.316-1.203,2.491-1.891,3.529C26.021,86.232,25.279,86.816,24.482,86.942z M23.532,83.75
		c0.579-0.092,1.1-0.786,1.563-2.084c0.462-1.299,0.84-2.656,1.135-4.078c0.294-1.42,0.491-2.286,0.591-2.6
		c-0.901-0.526-2.135-1.405-3.705-2.644c-1.57-1.234-2.895-2.214-3.973-2.934c0.115,0.724,0.39,2.351,0.829,4.88
		c0.438,2.531,1.075,5.027,1.911,7.493C22.402,83.187,22.951,83.842,23.532,83.75z"/>
	<path fill="#984A42" d="M101.577,68.823c-1.304,0.207-2.528,0.104-3.669-0.31c-1.143-0.411-2.094-1.374-2.852-2.889
		c-0.107-0.205-0.196-0.414-0.266-0.626c-0.072-0.211-0.129-0.461-0.175-0.752c-0.229-1.449-0.19-3.31,0.117-5.587
		c0.308-2.276,0.771-4.502,1.392-6.68c-0.343,0.649-0.739,1.436-1.186,2.359c-0.449,0.925-1.111,2.124-1.991,3.601
		c-0.245,0.336-0.547,0.532-0.909,0.59c-0.507,0.08-0.807-0.169-0.899-0.75c-0.068-0.434,0.019-0.817,0.263-1.154
		c1.504-2.688,2.85-5.091,4.037-7.211c1.185-2.118,2.038-3.886,2.557-5.306c-0.011-0.071-0.039-0.122-0.081-0.154
		c-0.043-0.029-0.069-0.081-0.081-0.154c-0.034-0.217,0.023-0.561,0.171-1.029c0.304-1.83,0.669-3.391,1.095-4.684
		c0.426-1.293,0.99-2.067,1.692-2.328c0.144-0.022,0.286-0.063,0.426-0.124c0.139-0.059,0.28-0.1,0.426-0.123
		c0.796-0.126,1.55-0.059,2.259,0.199c0.71,0.261,1.121,0.752,1.236,1.475c0.103,0.652-0.006,1.487-0.328,2.503
		c-0.322,1.017-0.736,2.271-1.242,3.759c-1.065,3.586-2.018,6.836-2.854,9.754c-0.837,2.916-1.191,5.255-1.06,7.016
		c-0.027,0.302-0.02,0.58,0.021,0.833c0.041,0.254,0.083,0.526,0.129,0.814c0.459,2.897,1.629,4.197,3.513,3.898
		c1.158-0.184,2.543-1.052,4.153-2.607c1.608-1.554,3.209-3.403,4.801-5.549c1.59-2.146,3.029-4.191,4.317-6.142
		c1.287-1.947,2.151-3.403,2.594-4.364c0.183-0.252,0.383-0.396,0.601-0.43c0.288-0.046,0.541,0.025,0.758,0.214
		c0.214,0.188,0.279,0.477,0.191,0.861c-0.457,1.334-1.318,3.049-2.582,5.142c-1.266,2.094-2.711,4.217-4.337,6.367
		c-1.627,2.151-3.243,4.022-4.847,5.612c-0.827,0.875-1.903,1.693-3.229,2.462C104.413,68.096,103.024,68.593,101.577,68.823z
		 M107.255,28.052c-0.941,0.149-1.934,0.214-2.976,0.193c-1.044-0.019-1.656-0.609-1.84-1.769c-0.034-0.217,0.375-0.802,1.226-1.753
		c0.852-0.952,1.736-1.927,2.654-2.928c0.917-0.998,1.475-1.587,1.668-1.767c1.07-1.21,1.751-1.837,2.041-1.883
		c0.362-0.058,0.437,0.414,0.224,1.412c-0.214,0.999-0.262,1.861-0.147,2.585c0.058,0.363-0.062,1.012-0.359,1.949
		c-0.297,0.938-0.678,1.816-1.143,2.632C108.139,27.542,107.691,27.983,107.255,28.052z"/>
	<path fill="#984A42" d="M116.294,66.826c-0.506,0.08-0.691-0.152-0.555-0.691c0.149-0.47,0.39-1.527,0.722-3.178
		c0.333-1.648,0.708-3.619,1.123-5.914c0.417-2.293,0.839-4.659,1.27-7.105c0.428-2.443,0.826-4.733,1.194-6.871
		c0.366-2.136,0.676-3.819,0.926-5.047c0.075-0.459,0.119-1.114,0.133-1.971c0.012-0.854,0.199-1.664,0.562-2.429
		c0.361-0.761,1.121-1.235,2.281-1.419c2.173-0.345,3.34-0.008,3.5,1.005c0.058,0.363-0.026,1.006-0.25,1.933
		c-0.559,2.094-1.145,4.489-1.757,7.184c-0.613,2.697-1.139,5.23-1.58,7.602c-0.441,2.372-0.78,4.208-1.021,5.508
		c0.563-1.129,1.511-2.764,2.843-4.905c1.331-2.142,2.838-4.459,4.522-6.955c1.683-2.492,3.469-4.929,5.357-7.308
		c1.887-2.376,3.69-4.352,5.409-5.924c1.718-1.571,3.266-2.467,4.643-2.685c1.737-0.275,2.756,0.529,3.054,2.412
		c0.103,0.65,0.077,1.657-0.078,3.02c-0.365,1.914-0.92,3.803-1.664,5.664c-0.745,1.864-1.366,3.801-1.864,5.81
		c-0.837,3.622-1.197,6.5-1.083,8.635c-0.027,0.301-0.019,0.579,0.021,0.832c0.04,0.254,0.083,0.526,0.129,0.814
		c0.459,2.897,1.667,4.19,3.622,3.881c1.086-0.172,2.431-1.053,4.036-2.644c1.603-1.592,3.222-3.443,4.855-5.56
		c1.631-2.112,3.075-4.142,4.326-6.086c1.252-1.941,2.097-3.395,2.54-4.355c0.182-0.252,0.383-0.396,0.6-0.43
		c0.289-0.046,0.542,0.025,0.758,0.214c0.215,0.188,0.279,0.477,0.192,0.861c-0.457,1.334-1.318,3.049-2.583,5.142
		c-1.266,2.094-2.693,4.214-4.282,6.359c-1.592,2.145-3.189,4.013-4.792,5.604c-0.971,0.897-2.209,1.761-3.709,2.593
		c-1.502,0.83-3.057,1.336-4.66,1.517c-2.063,0.105-3.623-0.372-4.682-1.429c-1.058-1.058-1.719-2.418-1.983-4.085
		c-0.31-1.956-0.259-4.098,0.151-6.428c0.41-2.329,0.931-4.546,1.563-6.651c0.631-2.104,1.156-3.709,1.575-4.815
		c0.396-1.251,0.542-2.202,0.439-2.854c-0.092-0.578-0.392-0.829-0.898-0.749c-0.508,0.08-1.217,0.527-2.127,1.339
		c-0.912,0.813-2.109,2.154-3.595,4.022c-1.375,1.63-2.794,3.691-4.254,6.187c-1.461,2.497-2.859,5.039-4.194,7.625
		c-1.335,2.59-2.505,4.816-3.507,6.682c-1.004,1.868-1.737,2.986-2.197,3.355c-0.328,0.275-1.086,0.766-2.272,1.475
		C117.866,66.315,116.947,66.722,116.294,66.826z"/>
	<path fill="#984A42" d="M160.186,59.871c-0.506,0.081-0.691-0.151-0.555-0.69c0.148-0.47,0.39-1.527,0.721-3.178
		c0.333-1.648,0.708-3.62,1.124-5.914c0.417-2.293,0.839-4.66,1.269-7.105c0.429-2.443,0.827-4.734,1.195-6.871
		c0.366-2.136,0.676-3.819,0.926-5.048c0.075-0.458,0.119-1.114,0.133-1.97c0.012-0.855,0.199-1.664,0.562-2.429
		c0.361-0.761,1.121-1.236,2.28-1.42c2.173-0.344,3.34-0.007,3.5,1.005c0.058,0.363-0.026,1.007-0.25,1.934
		c-0.559,2.094-1.146,4.488-1.757,7.184c-0.613,2.697-1.14,5.229-1.58,7.602c-0.441,2.372-0.78,4.208-1.021,5.507
		c0.563-1.128,1.511-2.763,2.843-4.905c1.331-2.141,2.838-4.459,4.522-6.954c1.683-2.493,3.469-4.929,5.358-7.308
		c1.887-2.376,3.69-4.352,5.409-5.925c1.718-1.57,3.266-2.466,4.642-2.685c1.738-0.275,2.757,0.529,3.055,2.412
		c0.103,0.651,0.077,1.658-0.078,3.02c-0.365,1.915-0.92,3.803-1.664,5.665c-0.746,1.863-1.366,3.8-1.864,5.809
		c-0.837,3.623-1.198,6.501-1.083,8.635c-0.027,0.302-0.019,0.58,0.021,0.833c0.04,0.254,0.083,0.526,0.129,0.814
		c0.459,2.897,1.667,4.19,3.622,3.881c1.086-0.172,2.431-1.053,4.036-2.644c1.603-1.592,3.222-3.444,4.855-5.56
		c1.631-2.112,3.075-4.143,4.326-6.086c1.251-1.941,2.097-3.395,2.54-4.355c0.182-0.253,0.382-0.396,0.6-0.43
		c0.289-0.046,0.542,0.025,0.758,0.214c0.214,0.188,0.279,0.477,0.191,0.86c-0.456,1.335-1.317,3.049-2.582,5.143
		c-1.266,2.094-2.693,4.214-4.282,6.358c-1.592,2.146-3.189,4.014-4.792,5.604c-0.971,0.897-2.209,1.762-3.71,2.593
		c-1.502,0.831-3.056,1.337-4.66,1.518c-2.063,0.104-3.623-0.372-4.682-1.43c-1.058-1.058-1.719-2.417-1.983-4.084
		c-0.31-1.956-0.259-4.098,0.151-6.428c0.41-2.33,0.93-4.547,1.563-6.652c0.63-2.104,1.156-3.709,1.575-4.815
		c0.396-1.251,0.542-2.202,0.439-2.854c-0.092-0.578-0.393-0.828-0.898-0.748c-0.508,0.08-1.217,0.526-2.126,1.339
		c-0.913,0.813-2.109,2.154-3.595,4.022c-1.375,1.629-2.795,3.691-4.254,6.187c-1.461,2.497-2.859,5.039-4.193,7.625
		c-1.335,2.589-2.505,4.815-3.507,6.682c-1.004,1.868-1.737,2.986-2.197,3.355c-0.329,0.275-1.086,0.766-2.272,1.474
		C161.757,59.361,160.838,59.768,160.186,59.871z"/>
	<path fill="#984A42" d="M218.562,50.845c-3.259,0.517-6.205,0.203-8.835-0.94c-2.631-1.142-4.194-3.27-4.688-6.385
		c-0.264-1.665-0.079-3.774,0.558-6.325c0.459-1.779,1.496-3.911,3.107-6.396c1.612-2.481,3.558-4.962,5.838-7.438
		c2.28-2.478,4.654-4.598,7.122-6.363c2.467-1.765,4.788-2.819,6.961-3.163c0.796-0.126,1.539-0.133,2.225-0.02
		c1.3,0.241,2.259,0.795,2.88,1.66c0.619,0.868,1.011,1.809,1.171,2.822c0.149,0.941,0.146,1.869-0.004,2.784
		c-0.153,0.916-0.394,1.733-0.725,2.454c-0.994,2.162-2.584,4.195-4.769,6.102c-2.187,1.906-4.459,3.49-6.82,4.756
		c-2.361,1.265-4.329,2.097-5.897,2.494l-0.218,0.034c-0.942,0.149-1.458-0.065-1.55-0.646c-0.058-0.361,0.202-0.59,0.783-0.682
		c1.715-0.419,3.776-1.581,6.186-3.485c2.408-1.902,4.5-3.813,6.276-5.728c0.754-0.861,1.625-2.04,2.613-3.533
		c0.989-1.493,1.386-2.854,1.19-4.086c-0.206-1.305-0.926-1.857-2.157-1.663c-0.652,0.104-1.299,0.355-1.941,0.752
		c-0.643,0.399-1.169,0.706-1.581,0.919c-1.94,1.349-4.008,3.291-6.204,5.828c-2.197,2.539-4.118,5.293-5.763,8.264
		c-1.646,2.972-2.655,5.86-3.026,8.665c-0.125,0.614-0.183,1.198-0.168,1.753c0.014,0.555,0.062,1.086,0.142,1.593
		c0.275,1.738,1.03,2.882,2.269,3.427c1.237,0.548,2.652,0.694,4.246,0.441c2.39-0.379,4.769-1.293,7.139-2.746
		c2.368-1.451,4.616-3.198,6.742-5.244c2.126-2.045,4.032-4.185,5.721-6.42c1.687-2.234,3.076-4.366,4.166-6.396
		c0.171-0.323,0.398-0.526,0.683-0.609c0.283-0.082,0.473-0.057,0.569,0.076c0.3,0.028,0.478,0.204,0.529,0.529
		c0.052,0.326,0.027,0.646-0.071,0.958c-1.582,3.146-3.59,6.287-6.026,9.42c-2.437,3.133-5.235,5.859-8.393,8.178
		C225.682,48.807,222.256,50.259,218.562,50.845z"/>
	<path fill="#984A42" d="M257.621,44.322c-1.231,0.195-2.362,0.096-3.388-0.298c-1.028-0.394-1.844-1.322-2.446-2.787
		c-0.343-0.763-0.578-1.54-0.704-2.338c-0.344-2.173-0.121-4.381,0.677-6.623c0.794-2.242,1.813-4.37,3.052-6.387
		c1.241-2.015,2.306-3.725,3.198-5.128c0.487-0.671,1.037-1.538,1.648-2.601c0.612-1.062,0.843-2.064,0.694-3.006
		c-0.092-0.578-0.471-1.094-1.137-1.545c-0.666-0.452-1.776-0.666-3.331-0.642c-0.892-0.008-1.727-0.006-2.505,0.006
		c-0.777,0.013-1.565,0.081-2.361,0.207c-1.592,3.075-3.128,6.159-4.604,9.25c-1.478,3.094-3.091,6.153-4.838,9.175
		c-0.428,0.588-0.822,0.91-1.184,0.967c-0.435,0.069-0.687-0.113-0.755-0.548c-0.069-0.435,0.079-0.903,0.445-1.407
		c3.153-5.399,5.712-11.039,7.677-16.92c-0.364,0.058-0.91,0.127-1.639,0.204c-0.731,0.079-1.318,0.116-1.764,0.112
		c-0.531-0.063-0.964-0.217-1.298-0.461c-0.336-0.244-0.526-0.512-0.573-0.802c-0.068-0.435,0.071-0.716,0.423-0.847
		c0.895-0.438,1.841-1.032,2.835-1.786c0.995-0.751,1.888-1.671,2.68-2.763c0.854-1.175,1.626-2.391,2.317-3.652
		c0.691-1.26,1.245-2.22,1.66-2.88c0.449-0.442,0.963-0.71,1.544-0.802c0.361-0.057,0.723-0.004,1.083,0.162
		s0.575,0.466,0.644,0.899c0.08,0.509-0.033,1.195-0.342,2.06c-0.491,1.118-1.02,2.354-1.585,3.704
		c-0.565,1.353-1.094,2.587-1.585,3.704c1.315-0.135,2.631-0.268,3.945-0.403c1.315-0.134,2.661-0.31,4.037-0.527
		c0.724-0.114,1.427-0.244,2.11-0.391c0.682-0.146,1.385-0.275,2.11-0.391c2.174-0.344,3.346,0.026,3.519,1.114
		c0.114,0.725-0.125,1.673-0.72,2.842c-0.594,1.172-1.337,2.458-2.228,3.861c-2.016,3.216-3.646,6.519-4.891,9.908
		c-1.245,3.389-2.025,5.965-2.34,7.721c-0.305,1.83-0.387,3.18-0.25,4.049c0.275,1.738,1.101,2.498,2.478,2.28
		c1.23-0.195,2.636-1.048,4.217-2.561c1.578-1.513,3.169-3.305,4.771-5.379c1.602-2.071,3.029-4.08,4.28-6.024
		c1.251-1.94,2.134-3.4,2.649-4.372c0.109-0.241,0.31-0.384,0.6-0.43c0.289-0.046,0.563,0.042,0.821,0.259
		c0.258,0.221,0.306,0.527,0.146,0.924c-0.603,1.359-1.517,3.081-2.745,5.17c-1.228,2.086-2.641,4.188-4.237,6.295
		c-1.598,2.109-3.198,3.959-4.801,5.549c-0.827,0.875-2.006,1.748-3.538,2.621C260.56,43.539,259.069,44.092,257.621,44.322z"/>
</g>
</svg>
