<?xml version="1.0" encoding="utf-8"?>
<!-- Generator: Adobe Illustrator 16.0.3, SVG Export Plug-In . SVG Version: 6.00 Build 0)  -->
<!DOCTYPE svg PUBLIC "-//W3C//DTD SVG 1.1//EN" "http://www.w3.org/Graphics/SVG/1.1/DTD/svg11.dtd">
<svg version="1.1" id="レイヤー_1" xmlns="http://www.w3.org/2000/svg" xmlns:xlink="http://www.w3.org/1999/xlink" x="0px"
	 y="0px" width="354.835px" height="96.125px" viewBox="0 0 354.835 96.125" enable-background="new 0 0 354.835 96.125"
	 xml:space="preserve">
<g opacity="0.3">
	<path fill="#984A42" d="M6.452,96.039c-1.594,0.252-2.978-0.049-4.152-0.9c-1.174-0.855-1.905-2.188-2.192-3.998
		c-0.16-1.014-0.141-2.188,0.057-3.516c0.196-1.33,0.651-2.795,1.363-4.393c1.253-2.871,2.945-6.127,5.079-9.77
		c2.133-3.643,4.431-7.293,6.896-10.951c2.464-3.654,4.809-7.016,7.034-10.078c2.224-3.063,4.019-5.444,5.384-7.147
		c0.378-2.286,0.729-4.643,1.051-7.071c0.32-2.426,0.648-4.929,0.982-7.506c-1.73,2.206-3.807,3.982-6.228,5.33
		c-2.423,1.35-4.745,2.274-6.967,2.774l-0.108,0.018c-0.726,0.114-1.127-0.081-1.207-0.588c-0.092-0.58,0.291-0.975,1.148-1.185
		c2.065-0.551,4.109-1.71,6.132-3.479c2.021-1.768,3.816-3.906,5.386-6.422c1.568-2.512,2.66-5.116,3.273-7.813
		c0.075-0.457,0.513-0.86,1.312-1.21c0.797-0.35,1.668-0.599,2.609-0.747c0.797-0.127,1.518-0.146,2.162-0.064
		c0.644,0.085,0.934,0.392,0.87,0.92c-0.776,3.539-1.536,6.945-2.279,10.218c-0.745,3.275-1.467,6.451-2.165,9.531
		c3.699-4.297,7.221-7.955,10.567-10.975c3.345-3.017,6.165-4.78,8.461-5.293c4.094-0.873,7.443-0.695,10.051,0.523
		c2.605,1.222,4.608,3.075,6.004,5.563c1.397,2.489,2.331,5.219,2.802,8.188c0.115,0.725,0.205,1.415,0.272,2.073
		c0.066,0.658,0.115,1.317,0.146,1.981c0.165,3.39,0.044,7.307-0.365,11.752c-0.408,4.445-0.938,8.611-1.583,12.502
		c-0.088,0.385-0.205,1.053-0.351,2.002c-0.146,0.953-0.11,1.41,0.106,1.377c0.071-0.012,0.36-0.539,0.862-1.584
		c1.34-3.256,2.635-6.449,3.884-9.58c1.248-3.131,2.61-6.373,4.084-9.725c2.185-4.949,4.637-9.979,7.354-15.088
		c2.717-5.106,5.528-9.746,8.431-13.92c1.146-1.665,2.404-2.979,3.775-3.938c1.368-0.959,2.706-1.544,4.01-1.75
		c1.448-0.229,2.739,0.067,3.872,0.89c1.133,0.824,1.86,2.249,2.182,4.276c0.08,0.508,0.115,1.078,0.104,1.711
		c-0.011,0.633-0.032,1.323-0.062,2.068c-0.318,3.615-0.828,6.964-1.527,10.044c-0.7,3.081-1.409,6.108-2.125,9.079
		c-0.718,2.974-1.288,6.052-1.711,9.238c-0.425,3.186-0.523,6.652-0.301,10.404c0.031,0.664,0.074,1.289,0.13,1.873
		c0.055,0.586,0.124,1.131,0.204,1.639c0.391,2.463,1.036,4.199,1.938,5.205c0.901,1.01,1.933,1.42,3.092,1.236
		c1.375-0.217,2.893-1.07,4.551-2.559c1.657-1.486,3.286-3.268,4.89-5.342c1.601-2.072,3.028-4.08,4.28-6.023
		c1.251-1.941,2.157-3.479,2.722-4.607c0.11-0.24,0.31-0.383,0.601-0.43c0.288-0.045,0.561,0.023,0.812,0.205
		c0.252,0.184,0.298,0.475,0.138,0.869c-0.713,1.6-1.768,3.494-3.165,5.682c-1.398,2.189-2.88,4.316-4.445,6.383
		c-1.565,2.068-2.987,3.76-4.264,5.076c-0.959,0.971-2.105,1.818-3.438,2.549c-1.332,0.73-2.687,1.205-4.062,1.422
		c-1.595,0.254-3.105,0.084-4.535-0.506c-1.431-0.588-2.555-1.822-3.371-3.697c-0.331-0.689-0.599-1.426-0.796-2.213
		c-0.199-0.783-0.367-1.613-0.505-2.482c-0.481-3.041-0.583-6.494-0.305-10.363c0.277-3.867,0.773-7.77,1.485-11.708
		c0.713-3.937,1.423-7.537,2.131-10.806c0.707-3.268,1.243-5.858,1.608-7.773c0.345-1.094,0.45-2.076,0.313-2.945
		c-0.241-1.521-1.014-2.178-2.317-1.972c-1.086,0.173-2.257,0.99-3.51,2.45c-1.814,2.144-3.74,4.863-5.779,8.154
		c-2.04,3.294-4.072,6.882-6.091,10.766c-2.021,3.885-3.954,7.849-5.801,11.89c-1.848,4.043-3.5,7.904-4.957,11.588
		c-1.46,3.684-2.598,6.928-3.415,9.729c-0.336,1.168-0.828,1.803-1.48,1.906c-0.507,0.08-1.048-0.168-1.621-0.746
		c-0.576-0.576-1.049-1.225-1.423-1.945c-0.375-0.721-0.512-1.236-0.412-1.551c0.573-2.465,0.992-5.447,1.257-8.941
		c0.262-3.494,0.346-7.184,0.251-11.064c-0.097-3.884-0.419-7.564-0.97-11.041c-0.734-4.634-1.938-8.472-3.605-11.513
		c-1.671-3.037-3.955-4.328-6.851-3.869c-1.885,0.298-4.148,1.475-6.792,3.525c-2.646,2.053-5.438,4.687-8.382,7.898
		c-2.943,3.215-5.933,6.732-8.965,10.553c-0.398,1.698-0.992,4.168-1.776,7.411c-0.787,3.242-1.738,6.846-2.854,10.809
		c-1.118,3.963-2.418,7.939-3.903,11.924c-1.484,3.984-3.095,7.525-4.832,10.621c-1.565,2.771-3.233,4.893-5.006,6.363
		C9.837,94.908,8.118,95.775,6.452,96.039z M6.394,92.15c1.883-0.299,3.662-1.602,5.339-3.908c1.676-2.307,3.266-5.156,4.771-8.553
		c1.504-3.393,2.824-6.887,3.963-10.484c1.138-3.594,2.081-6.9,2.828-9.914c0.748-3.014,1.266-5.248,1.555-6.707
		c-1.718,2.277-3.514,4.773-5.385,7.48c-1.873,2.711-3.687,5.449-5.438,8.213c-1.753,2.766-3.331,5.336-4.736,7.711
		c-1.405,2.377-2.507,4.334-3.303,5.869c-0.906,1.777-1.53,3.344-1.873,4.695c-0.343,1.354-0.439,2.502-0.29,3.443
		C4.089,91.662,4.943,92.38,6.394,92.15z"/>
	<path fill="#984A42" d="M132.646,68.693c-2.028,0.322-3.878,0.131-5.548-0.568c-2.777-1.119-4.479-3.67-5.11-7.654
		c-0.264-1.664-0.279-3.631-0.043-5.896c0.219-1.889,0.813-4.008,1.778-6.351c0.965-2.342,2.178-4.633,3.645-6.87
		c1.464-2.236,3.148-4.136,5.055-5.701c1.905-1.563,3.907-2.513,6.009-2.846c0.869-0.138,1.647-0.149,2.333-0.035
		c0.915,0.152,1.74,0.56,2.477,1.222c0.735,0.664,1.196,1.575,1.38,2.733c0.195,1.232-0.005,1.969-0.597,2.21
		c-0.593,0.244-0.923,0.146-0.992-0.287c-0.022-0.145-0.028-0.292-0.015-0.444c0.014-0.149,0.015-0.261,0.003-0.334
		c-0.092-0.579-0.338-1.077-0.738-1.498c-0.4-0.418-1.035-0.56-1.904-0.422c-1.16,0.184-2.493,1.027-3.999,2.527
		c-1.508,1.502-2.984,3.424-4.432,5.77c-1.449,2.346-2.646,4.856-3.597,7.53c-0.95,2.676-1.446,5.279-1.491,7.809
		c-0.015,0.375-0.015,0.729,0.001,1.061c0.015,0.33,0.053,0.678,0.109,1.039c0.265,1.668,0.865,3,1.804,4.002
		c0.938,1.004,2.239,1.371,3.906,1.107c2.027-0.322,3.859-1.408,5.497-3.266c1.636-1.855,3.024-3.986,4.165-6.395
		c1.14-2.408,1.941-4.502,2.401-6.283c0.372-1.396,0.593-2.582,0.662-3.558c0.067-0.975,0.05-1.79-0.054-2.441
		c-0.092-0.58-0.226-1.078-0.403-1.495c-0.178-0.418-0.363-0.759-0.553-1.027c-0.215-0.41-0.338-0.726-0.372-0.942
		c-0.092-0.58,0.068-1.086,0.482-1.524c0.413-0.437,0.873-0.695,1.38-0.775c0.435-0.069,0.929,0.002,1.481,0.211
		c0.603,0.054,1.416,0.037,2.442-0.054c1.024-0.087,2.116-0.224,3.276-0.407c1.23-0.194,2.475-0.429,3.73-0.703
		c1.256-0.271,2.338-0.593,3.245-0.959c0.134-0.095,0.345-0.166,0.635-0.212c0.506-0.08,0.783,0.025,0.829,0.313
		c0.046,0.291-0.168,0.584-0.64,0.882c-2.353,1.561-4.518,2.535-6.498,2.922c-1.98,0.39-3.695,0.698-5.144,0.928
		c0.432,1.788,0.34,3.788-0.273,6.001c-0.615,2.213-1.303,4.198-2.063,5.95c-0.946,2.008-2.065,4.08-3.359,6.215
		c-1.296,2.137-2.82,3.992-4.575,5.568S135.107,68.304,132.646,68.693z"/>
	<path fill="#984A42" d="M176.665,61.832c-1.232,0.195-2.362,0.094-3.389-0.299c-1.028-0.395-1.844-1.324-2.446-2.787
		c-0.344-0.762-0.578-1.541-0.704-2.338c-0.345-2.174-0.121-4.381,0.676-6.623c0.795-2.242,1.814-4.371,3.054-6.387
		c1.239-2.015,2.306-3.724,3.197-5.128c0.486-0.671,1.036-1.538,1.647-2.601c0.611-1.061,0.843-2.063,0.694-3.005
		c-0.092-0.58-0.472-1.095-1.137-1.546c-0.666-0.452-1.775-0.666-3.332-0.642c-0.892-0.007-1.727-0.006-2.504,0.007
		c-0.778,0.012-1.565,0.081-2.361,0.207c-1.593,3.073-3.128,6.158-4.604,9.249c-1.479,3.094-3.091,6.152-4.839,9.175
		c-0.428,0.588-0.822,0.91-1.184,0.967c-0.435,0.068-0.686-0.113-0.755-0.549c-0.068-0.434,0.079-0.902,0.445-1.406
		c3.154-5.4,5.713-11.041,7.677-16.92c-0.363,0.058-0.909,0.126-1.639,0.203c-0.73,0.079-1.317,0.116-1.764,0.112
		c-0.53-0.063-0.964-0.217-1.299-0.462c-0.336-0.243-0.525-0.511-0.571-0.801c-0.069-0.435,0.07-0.715,0.422-0.846
		c0.895-0.438,1.841-1.033,2.836-1.787c0.994-0.75,1.887-1.671,2.681-2.763c0.853-1.175,1.625-2.392,2.316-3.653
		c0.691-1.259,1.244-2.219,1.659-2.879c0.449-0.443,0.964-0.71,1.545-0.802c0.36-0.058,0.723-0.004,1.083,0.163
		c0.36,0.165,0.575,0.465,0.644,0.898c0.081,0.509-0.033,1.195-0.342,2.06c-0.491,1.118-1.02,2.353-1.585,3.704
		c-0.565,1.353-1.094,2.587-1.585,3.704c1.315-0.135,2.631-0.269,3.946-0.403c1.315-0.133,2.66-0.31,4.036-0.527
		c0.724-0.115,1.427-0.244,2.11-0.391c0.682-0.145,1.385-0.275,2.11-0.391c2.173-0.344,3.346,0.026,3.518,1.114
		c0.115,0.724-0.125,1.673-0.72,2.843c-0.594,1.171-1.337,2.458-2.228,3.86c-2.017,3.216-3.646,6.519-4.89,9.907
		c-1.245,3.391-2.025,5.966-2.341,7.722c-0.305,1.83-0.387,3.18-0.249,4.049c0.275,1.738,1.101,2.498,2.477,2.279
		c1.23-0.195,2.636-1.047,4.217-2.561c1.578-1.512,3.169-3.303,4.771-5.379c1.602-2.072,3.029-4.08,4.28-6.024
		c1.251-1.94,2.134-3.4,2.648-4.372c0.109-0.241,0.31-0.384,0.6-0.43c0.289-0.046,0.563,0.042,0.821,0.26
		c0.258,0.22,0.306,0.526,0.146,0.924c-0.603,1.358-1.517,3.08-2.746,5.169c-1.228,2.086-2.64,4.188-4.236,6.295
		c-1.598,2.109-3.197,3.959-4.801,5.549c-0.827,0.875-2.006,1.748-3.538,2.621C179.604,61.046,178.113,61.601,176.665,61.832z"/>
	<path fill="#984A42" d="M191.892,59.529c-0.506,0.08-0.692-0.152-0.556-0.691c0.149-0.471,0.391-1.527,0.722-3.178
		c0.333-1.648,0.708-3.619,1.124-5.914c0.416-2.293,0.838-4.66,1.269-7.104c0.429-2.444,0.827-4.735,1.194-6.873
		c0.366-2.135,0.676-3.818,0.927-5.047c0.075-0.458,0.119-1.114,0.134-1.97c0.012-0.855,0.198-1.665,0.562-2.429
		c0.361-0.762,1.121-1.236,2.28-1.42c2.173-0.344,3.341-0.008,3.501,1.005c0.058,0.363-0.027,1.008-0.251,1.934
		c-0.559,2.094-1.145,4.488-1.757,7.184c-0.613,2.697-1.14,5.229-1.58,7.601c-0.442,2.373-0.781,4.209-1.021,5.508
		c0.563-1.128,1.512-2.762,2.843-4.905c1.331-2.141,2.839-4.459,4.522-6.954c1.684-2.493,3.469-4.93,5.357-7.308
		c1.888-2.377,3.69-4.352,5.41-5.925c1.717-1.57,3.265-2.467,4.642-2.685c1.738-0.275,2.757,0.529,3.055,2.412
		c0.104,0.651,0.077,1.657-0.078,3.02c-0.365,1.915-0.92,3.803-1.664,5.664c-0.745,1.864-1.366,3.801-1.864,5.81
		c-0.837,3.623-1.197,6.501-1.082,8.635c-0.026,0.303-0.02,0.58,0.021,0.833c0.041,0.255,0.084,0.526,0.129,0.814
		c0.46,2.898,1.667,4.191,3.622,3.88c1.087-0.172,2.432-1.053,4.036-2.643c1.604-1.591,3.223-3.444,4.855-5.559
		c1.631-2.113,3.074-4.144,4.325-6.087c1.252-1.941,2.098-3.395,2.54-4.356c0.183-0.252,0.383-0.395,0.6-0.429
		c0.289-0.046,0.542,0.025,0.759,0.214c0.214,0.188,0.278,0.477,0.191,0.86c-0.456,1.335-1.317,3.049-2.582,5.143
		c-1.266,2.095-2.692,4.214-4.282,6.358c-1.592,2.146-3.188,4.014-4.793,5.604c-0.971,0.896-2.209,1.762-3.709,2.592
		c-1.503,0.832-3.057,1.338-4.66,1.518c-2.063,0.105-3.623-0.371-4.682-1.43c-1.059-1.057-1.72-2.418-1.983-4.084
		c-0.311-1.957-0.26-4.097,0.151-6.428c0.41-2.329,0.931-4.546,1.563-6.651c0.63-2.104,1.155-3.709,1.574-4.815
		c0.396-1.251,0.543-2.202,0.439-2.854c-0.092-0.578-0.392-0.829-0.897-0.749c-0.508,0.081-1.217,0.527-2.127,1.339
		c-0.912,0.813-2.109,2.154-3.596,4.022c-1.375,1.63-2.794,3.691-4.254,6.188c-1.461,2.497-2.859,5.039-4.192,7.626
		c-1.336,2.587-2.506,4.814-3.509,6.679c-1.004,1.869-1.736,2.986-2.197,3.355c-0.328,0.275-1.086,0.768-2.271,1.475
		C193.462,59.019,192.544,59.425,191.892,59.529z"/>
	<path fill="#984A42" d="M245.618,50.681c-1.304,0.207-2.527,0.104-3.669-0.309c-1.143-0.412-2.094-1.375-2.853-2.889
		c-0.107-0.206-0.195-0.414-0.266-0.627c-0.072-0.211-0.129-0.461-0.175-0.751c-0.229-1.448-0.19-3.311,0.117-5.588
		c0.307-2.275,0.771-4.502,1.392-6.68c-0.343,0.65-0.738,1.437-1.186,2.359c-0.448,0.926-1.111,2.125-1.99,3.602
		c-0.245,0.336-0.548,0.532-0.909,0.589c-0.508,0.081-0.807-0.168-0.898-0.748c-0.069-0.435,0.018-0.819,0.262-1.156
		c1.505-2.688,2.851-5.091,4.037-7.21c1.185-2.118,2.038-3.887,2.556-5.306c-0.011-0.071-0.038-0.122-0.08-0.154
		c-0.043-0.029-0.068-0.081-0.08-0.155c-0.034-0.217,0.022-0.56,0.171-1.028c0.304-1.83,0.669-3.391,1.096-4.684
		c0.425-1.294,0.989-2.068,1.691-2.328c0.145-0.023,0.286-0.063,0.426-0.124c0.139-0.059,0.28-0.101,0.426-0.123
		c0.797-0.127,1.55-0.06,2.26,0.198c0.709,0.261,1.121,0.753,1.235,1.476c0.104,0.652-0.006,1.487-0.327,2.502
		c-0.322,1.018-0.736,2.271-1.241,3.761c-1.066,3.585-2.019,6.835-2.855,9.752s-1.189,5.257-1.059,7.017
		c-0.027,0.303-0.021,0.58,0.02,0.832c0.041,0.256,0.084,0.527,0.129,0.814c0.46,2.898,1.629,4.197,3.514,3.898
		c1.157-0.184,2.543-1.052,4.153-2.607c1.609-1.553,3.209-3.403,4.801-5.549c1.59-2.145,3.029-4.191,4.317-6.142
		c1.287-1.946,2.151-3.403,2.594-4.364c0.183-0.252,0.383-0.395,0.601-0.43c0.288-0.045,0.541,0.025,0.758,0.215
		c0.214,0.188,0.278,0.477,0.191,0.86c-0.457,1.335-1.317,3.049-2.582,5.143c-1.266,2.095-2.711,4.216-4.337,6.367
		c-1.627,2.15-3.243,4.022-4.847,5.612c-0.827,0.875-1.903,1.693-3.229,2.46S247.065,50.453,245.618,50.681z M251.298,9.91
		c-0.942,0.149-1.935,0.215-2.977,0.194c-1.044-0.02-1.655-0.61-1.84-1.77c-0.034-0.217,0.375-0.8,1.226-1.753
		c0.852-0.951,1.736-1.927,2.654-2.928c0.918-0.997,1.476-1.587,1.67-1.767c1.069-1.209,1.75-1.837,2.04-1.883
		c0.361-0.058,0.437,0.414,0.224,1.412c-0.214,1-0.261,1.861-0.146,2.585c0.058,0.363-0.063,1.013-0.359,1.951
		c-0.297,0.937-0.679,1.815-1.143,2.631C252.181,9.4,251.732,9.842,251.298,9.91z"/>
	<path fill="#984A42" d="M260.337,48.683c-0.506,0.08-0.692-0.15-0.556-0.69c0.148-0.471,0.39-1.527,0.722-3.178
		c0.332-1.648,0.707-3.62,1.124-5.914c0.416-2.294,0.838-4.66,1.269-7.104c0.429-2.445,0.826-4.735,1.194-6.873
		c0.366-2.135,0.676-3.818,0.927-5.047c0.075-0.458,0.119-1.114,0.133-1.971c0.013-0.854,0.199-1.664,0.563-2.428
		c0.361-0.762,1.121-1.236,2.28-1.42c2.173-0.344,3.34-0.008,3.501,1.005c0.058,0.363-0.027,1.008-0.251,1.933
		c-0.56,2.094-1.146,4.489-1.758,7.185c-0.613,2.696-1.14,5.229-1.58,7.601c-0.441,2.373-0.78,4.209-1.021,5.508
		c0.563-1.128,1.512-2.762,2.843-4.905c1.331-2.141,2.838-4.459,4.522-6.954c1.683-2.493,3.469-4.93,5.357-7.308
		c1.887-2.377,3.69-4.353,5.41-5.925c1.717-1.57,3.265-2.467,4.642-2.685c1.738-0.275,2.757,0.529,3.055,2.412
		c0.104,0.651,0.076,1.657-0.078,3.02c-0.365,1.915-0.921,3.803-1.664,5.664c-0.745,1.864-1.366,3.801-1.864,5.81
		c-0.837,3.623-1.197,6.501-1.082,8.635c-0.026,0.303-0.02,0.58,0.021,0.833c0.041,0.255,0.084,0.526,0.129,0.814
		c0.46,2.897,1.667,4.19,3.622,3.881c1.087-0.173,2.432-1.054,4.036-2.644c1.603-1.591,3.223-3.443,4.855-5.559
		c1.631-2.113,3.074-4.144,4.325-6.088c1.252-1.94,2.097-3.395,2.54-4.355c0.183-0.252,0.383-0.395,0.6-0.43
		c0.289-0.045,0.542,0.025,0.759,0.215c0.214,0.188,0.278,0.477,0.191,0.86c-0.457,1.335-1.318,3.049-2.582,5.143
		c-1.266,2.095-2.692,4.214-4.282,6.358c-1.593,2.146-3.189,4.014-4.793,5.604c-0.971,0.897-2.209,1.762-3.71,2.593
		c-1.502,0.832-3.057,1.337-4.659,1.518c-2.063,0.104-3.623-0.372-4.682-1.43c-1.059-1.057-1.72-2.417-1.984-4.085
		c-0.31-1.955-0.259-4.097,0.151-6.428c0.41-2.329,0.931-4.546,1.563-6.651c0.631-2.104,1.156-3.709,1.575-4.815
		c0.396-1.251,0.543-2.202,0.439-2.854c-0.092-0.578-0.393-0.829-0.898-0.749c-0.508,0.081-1.217,0.527-2.127,1.34
		c-0.911,0.813-2.108,2.153-3.595,4.021c-1.375,1.63-2.795,3.691-4.254,6.188c-1.461,2.497-2.859,5.039-4.193,7.626
		c-1.336,2.588-2.506,4.814-3.508,6.68c-1.004,1.868-1.736,2.986-2.197,3.355c-0.328,0.275-1.086,0.767-2.272,1.475
		C261.907,48.174,260.988,48.58,260.337,48.683z"/>
	<path fill="#984A42" d="M310.321,80.191c-0.902-0.08-1.698-0.178-2.384-0.291c-1.49-0.508-2.597-1.166-3.321-1.98
		c-0.723-0.814-1.164-1.729-1.325-2.74c-0.264-1.668,0.014-3.549,0.832-5.645c0.819-2.1,1.974-4.305,3.461-6.619
		c1.466-2.461,3.416-5.035,5.85-7.721c2.432-2.688,5.007-5.305,7.722-7.85c2.715-2.546,5.11-4.764,7.188-6.652
		c1.72-5.543,3.194-10.77,4.421-15.68c1.227-4.908,2.042-8.656,2.45-11.247c-1.257,1.908-2.592,4.031-4.002,6.371
		c-1.412,2.34-2.442,4.043-3.089,5.109c-1.147,1.669-2.454,3.491-3.923,5.467c-1.468,1.978-3.069,3.717-4.798,5.216
		c-1.731,1.499-3.502,2.393-5.312,2.679c-1.159,0.184-2.444,0.036-3.857-0.446c-1.412-0.481-2.604-1.202-3.572-2.162
		c-1.315-1.277-2.094-2.677-2.335-4.197c-0.31-1.955,0.038-4.088,1.045-6.402c1.007-2.313,2.422-4.633,4.243-6.965
		c1.82-2.329,3.814-4.503,5.983-6.517c2.167-2.014,4.267-3.756,6.299-5.23c2.031-1.472,3.706-2.497,5.025-3.079
		c1.235-0.642,2.793-1.11,4.677-1.409c0.869-0.138,1.941-0.158,3.22-0.064c1.277,0.095,2.454,0.374,3.529,0.834
		c1.075,0.461,1.704,1.271,1.888,2.428c0.092,0.58-0.169,0.807-0.782,0.682c-0.646-0.789-1.477-1.231-2.494-1.331
		c-1.019-0.099-2.035-0.068-3.048,0.093c-2.825,0.447-5.845,1.892-9.059,4.331c-3.216,2.441-5.998,5.146-8.349,8.116
		c-0.754,0.863-1.751,2.302-2.991,4.316c-1.239,2.017-2.291,4.169-3.152,6.457c-0.862,2.291-1.156,4.305-0.881,6.043
		c0.149,0.942,0.534,1.735,1.156,2.379c0.274,0.329,0.737,0.439,1.39,0.336c1.375-0.218,2.962-1.099,4.76-2.646
		c1.796-1.547,3.668-3.439,5.615-5.679c1.946-2.239,3.819-4.596,5.617-7.072c1.798-2.474,3.386-4.749,4.767-6.824
		c1.378-2.073,2.391-3.645,3.039-4.714c0.087-0.385,0.3-0.678,0.641-0.881c0.338-0.202,0.726-0.338,1.16-0.407
		c1.158-0.184,2.421-0.066,3.786,0.347c1.364,0.416,1.974,0.857,1.825,1.326c-0.906,3.188-1.973,6.884-3.2,11.087
		c-1.227,4.204-2.518,8.604-3.866,13.197c0.86-0.653,2.24-2.024,4.138-4.107c1.897-2.082,3.957-4.543,6.181-7.383
		s4.25-5.742,6.083-8.704c0.72-1.078,1.297-1.653,1.731-1.722c0.435-0.069,0.604,0.294,0.507,1.088
		c-0.097,0.796-0.525,1.848-1.282,3.154c-0.941,1.562-2.274,3.463-3.997,5.702c-1.724,2.24-3.552,4.535-5.48,6.881
		c-1.931,2.35-3.732,4.454-5.403,6.313c-1.674,1.86-3.006,3.167-4.001,3.92c-1.488,5.136-2.947,9.989-4.376,14.559
		c-1.43,4.57-2.806,8.297-4.131,11.178c-0.873,1.996-1.992,4.066-3.359,6.215c-1.368,2.146-2.929,4.008-4.684,5.586
		c-1.755,1.576-3.719,2.537-5.892,2.883c-0.29,0.045-0.584,0.072-0.878,0.084C311.029,80.207,310.694,80.205,310.321,80.191z
		 M308.788,77.537c0.48,0.219,1.115,0.119,1.901-0.301c0.785-0.422,1.751-1.244,2.896-2.463c2.468-2.693,4.479-5.703,6.031-9.031
		c1.55-3.326,2.897-6.77,4.043-10.33c1.143-3.561,2.234-6.979,3.273-10.262c-2.492,2.547-5.287,5.532-8.381,8.956
		c-3.097,3.424-5.87,6.777-8.318,10.063c-1.221,1.676-2.178,3.48-2.874,5.41c-0.696,1.928-0.93,3.617-0.7,5.066
		C306.9,76.166,307.609,77.128,308.788,77.537z"/>
</g>
</svg>
