<?xml version="1.0" encoding="utf-8"?>
<!-- Generator: Adobe Illustrator 25.4.1, SVG Export Plug-In . SVG Version: 6.00 Build 0)  -->
<svg version="1.1" id="レイヤー_1" xmlns="http://www.w3.org/2000/svg" xmlns:xlink="http://www.w3.org/1999/xlink" x="0px"
	 y="0px" viewBox="0 0 63 63" style="enable-background:new 0 0 63 63;" xml:space="preserve">
<style type="text/css">
	.st0{fill:#C7AA61;}
	.st1{fill:#FFFFFF;}
</style>
<g>
	<circle class="st0" cx="31.5" cy="31.48" r="31.5"/>
	<g>
		<g>
			<path class="st1" d="M14.58,47.48c0,0.83,0.68,1.51,1.51,1.51h4.18c0.84,0,1.51-0.68,1.51-1.52v-3.13h-7.2V47.48z"/>
			<path class="st1" d="M41.44,47.47c0,0.84,0.68,1.52,1.51,1.52h4.18c0.83,0,1.51-0.68,1.51-1.51v-3.14h-7.2V47.47z"/>
			<path class="st1" d="M49.23,28.43l-2.12-7.7c-1.15-4.15-4.93-7.03-9.24-7.03H25.34c-4.31,0-8.09,2.88-9.23,7.03l-2.12,7.7
				c-3.06,1.17-5.17,4.27-4.84,7.8c0.36,3.91,3.71,6.87,7.64,6.87h7.78c0.11,0.44,0.33,0.83,0.64,1.14
				c0.43,0.43,1.05,0.71,1.71,0.71h9.4c0.66,0,1.27-0.27,1.71-0.71c0.31-0.3,0.53-0.7,0.63-1.14h7.79c3.93,0,7.28-2.96,7.64-6.88
				C54.4,32.69,52.29,29.6,49.23,28.43z M16.72,38.77c-1.8,0-3.26-1.46-3.26-3.26c0-1.8,1.46-3.26,3.26-3.26
				c1.8,0,3.26,1.46,3.26,3.26C19.98,37.31,18.52,38.77,16.72,38.77z M36.52,42.58c0,0.08-0.03,0.14-0.08,0.19
				c-0.05,0.05-0.11,0.08-0.19,0.08h-9.28c-0.08,0-0.15-0.03-0.21-0.08c-0.05-0.05-0.08-0.12-0.09-0.21V38.3
				c0-0.08,0.03-0.15,0.09-0.21c0.06-0.05,0.12-0.08,0.21-0.08h9.25c0.08,0,0.15,0.03,0.21,0.08c0.05,0.06,0.08,0.12,0.08,0.21
				V42.58L36.52,42.58z M18.85,26.16c-0.26,0-0.51-0.12-0.67-0.33c-0.16-0.21-0.21-0.48-0.14-0.73l0.99-3.59
				c0.78-2.84,3.39-4.83,6.34-4.83h12.49c2.95,0,5.55,1.99,6.34,4.83l0.99,3.59c0.07,0.25,0.02,0.52-0.14,0.73
				c-0.16,0.21-0.41,0.33-0.67,0.33H18.85L18.85,26.16z M46.5,38.77c-1.8,0-3.26-1.46-3.26-3.26c0-1.8,1.46-3.26,3.26-3.26
				c1.8,0,3.26,1.46,3.26,3.26C49.76,37.31,48.3,38.77,46.5,38.77z"/>
		</g>
	</g>
</g>
</svg>
