<?xml version="1.0" encoding="utf-8"?>
<!-- Generator: Adobe Illustrator 16.0.3, SVG Export Plug-In . SVG Version: 6.00 Build 0)  -->
<!DOCTYPE svg PUBLIC "-//W3C//DTD SVG 1.1//EN" "http://www.w3.org/Graphics/SVG/1.1/DTD/svg11.dtd">
<svg version="1.1" id="レイヤー_1" xmlns="http://www.w3.org/2000/svg" xmlns:xlink="http://www.w3.org/1999/xlink" x="0px"
	 y="0px" width="30.349px" height="23.828px" viewBox="0 0 30.349 23.828" enable-background="new 0 0 30.349 23.828"
	 xml:space="preserve">
<g>
	<g>
		<path fill="#C7AA61" d="M30.269,3.393c-0.141-0.689-0.456-1.32-0.898-1.842c-0.093-0.113-0.188-0.215-0.295-0.317
			C28.296,0.474,27.2,0,26.003,0H4.211C3.052,0,1.994,0.474,1.233,1.233C1.132,1.336,1.038,1.438,0.948,1.551
			C0.521,2.072,0.215,2.703,0.082,3.393C0.027,3.657,0,3.934,0,4.211v15.406c0,0.592,0.126,1.159,0.349,1.672
			c0.207,0.49,0.513,0.934,0.885,1.306c0.095,0.094,0.188,0.18,0.291,0.267c0.728,0.603,1.668,0.967,2.687,0.967h21.792
			c1.052,0,2.026-0.364,2.773-0.971c0.105-0.083,0.203-0.169,0.299-0.263c0.385-0.372,0.7-0.815,0.919-1.306v-0.004
			c0.229-0.513,0.354-1.076,0.354-1.668V4.211C30.35,3.934,30.32,3.657,30.269,3.393z M2.744,2.796
			C3.12,2.42,3.626,2.192,4.197,2.192h21.93c0.571,0,1.081,0.228,1.453,0.604c0.066,0.066,0.129,0.142,0.184,0.215L16.271,13.028
			c-0.317,0.278-0.709,0.415-1.108,0.415c-0.396,0-0.787-0.137-1.108-0.415L2.564,3.007C2.615,2.934,2.678,2.862,2.744,2.796z
			 M2.134,19.638V5.223l8.318,7.257l-8.313,7.248C2.134,19.7,2.134,19.669,2.134,19.638z M26.127,21.694H4.197
			c-0.372,0-0.721-0.098-1.018-0.27l8.771-7.645l0.818,0.713c0.686,0.595,1.543,0.896,2.393,0.896c0.854,0,1.712-0.302,2.396-0.896
			l0.818-0.713l8.769,7.645C26.848,21.597,26.499,21.694,26.127,21.694z M28.155,19.638c0,0.031,0,0.063-0.004,0.09l-8.313-7.244
			l8.316-7.257V19.638z"/>
	</g>
</g>
</svg>
