<?xml version="1.0" encoding="utf-8"?>
<!-- Generator: Adobe Illustrator 16.0.3, SVG Export Plug-In . SVG Version: 6.00 Build 0)  -->
<!DOCTYPE svg PUBLIC "-//W3C//DTD SVG 1.1//EN" "http://www.w3.org/Graphics/SVG/1.1/DTD/svg11.dtd">
<svg version="1.1" id="レイヤー_1" xmlns="http://www.w3.org/2000/svg" xmlns:xlink="http://www.w3.org/1999/xlink" x="0px"
	 y="0px" width="28px" height="29.683px" viewBox="0 0 28 29.683" enable-background="new 0 0 28 29.683" xml:space="preserve">
<g>
	<path fill="#C7AA61" d="M7.205,10.386C7.741,9.9,7.657,8.838,7.084,8.193C6.511,7.545,6.828,7.229,6.828,7.229l6.831-1.36
		l6.83-1.363c0,0,0.414,0.171,0.133,0.987c-0.282,0.817,0.048,1.83,0.731,2.074c0.682,0.243,3.876,0.622,5.06,0.514
		C27.595,7.971,28.012,6.556,28,6.179c-0.012-0.379,0.111-4.207-3.692-5.479C20.503-0.57,15.941,0.15,12.65,0.806
		C9.356,1.462,4.868,2.547,1.842,5.179c-3.026,2.633-1.443,6.121-1.309,6.476c0.134,0.354,1.061,1.5,2.195,1.148
		C3.861,12.449,6.667,10.874,7.205,10.386z"/>
	<path fill="#C7AA61" d="M15.342,23.626c1.076-0.001,2.039-0.433,2.745-1.138s1.138-1.67,1.138-2.746s-0.432-2.04-1.138-2.746
		c-0.706-0.704-1.669-1.138-2.745-1.138c-1.077,0-2.041,0.434-2.748,1.138c-0.705,0.706-1.137,1.67-1.137,2.746
		s0.432,2.041,1.137,2.746C13.301,23.194,14.265,23.625,15.342,23.626z"/>
	<path fill="#C7AA61" d="M21.811,9.631c-0.114-0.219-0.342-0.355-0.592-0.355h-1.92c-0.244,0-0.442,0.196-0.442,0.438v1.327
		c0,0.242-0.199,0.438-0.445,0.438h-6.185c-0.245,0-0.443-0.198-0.443-0.443V9.662c0-0.246-0.197-0.443-0.44-0.443H9.395
		c-0.248,0-0.472,0.137-0.585,0.356l-4.797,9.241c-0.838,1.612-1.274,3.403-1.274,5.224v2.156c0,1.222,0.985,2.213,2.198,2.213
		h0.527v1.274h2.261v-1.274h15.189v1.274h2.262v-1.274h0.571c1.222,0,2.212-0.991,2.212-2.212v-2.145c0-1.813-0.443-3.6-1.291-5.207
		L21.811,9.631z M9.272,19.743c0-3.352,2.716-6.067,6.069-6.068c3.351,0.001,6.067,2.717,6.068,6.068
		c-0.001,3.352-2.718,6.068-6.068,6.068C11.989,25.811,9.273,23.094,9.272,19.743z"/>
</g>
</svg>
