<?xml version="1.0" encoding="utf-8"?>
<!-- Generator: Adobe Illustrator 16.0.3, SVG Export Plug-In . SVG Version: 6.00 Build 0)  -->
<!DOCTYPE svg PUBLIC "-//W3C//DTD SVG 1.1//EN" "http://www.w3.org/Graphics/SVG/1.1/DTD/svg11.dtd">
<svg version="1.1" id="レイヤー_1" xmlns="http://www.w3.org/2000/svg" xmlns:xlink="http://www.w3.org/1999/xlink" x="0px"
	 y="0px" width="27.255px" height="28.894px" viewBox="0 0 27.255 28.894" enable-background="new 0 0 27.255 28.894"
	 xml:space="preserve">
<g>
	<g>
		<path fill="#FFFFFF" d="M7.013,10.11c0.522-0.473,0.44-1.507-0.118-2.135c-0.558-0.63-0.249-0.938-0.249-0.938l6.649-1.325
			l6.649-1.327c0,0,0.402,0.166,0.128,0.961c-0.273,0.796,0.046,1.781,0.711,2.019c0.664,0.237,3.773,0.605,4.925,0.5
			c1.151-0.106,1.556-1.483,1.545-1.851c-0.012-0.368,0.108-4.094-3.595-5.332c-3.703-1.236-8.143-0.537-11.348,0.102
			C9.107,1.424,4.738,2.48,1.792,5.041C-1.153,7.604,0.388,11,0.519,11.345s1.033,1.459,2.137,1.118
			C3.758,12.118,6.49,10.584,7.013,10.11z"/>
		<path fill="#FFFFFF" d="M14.933,22.999c1.047-0.001,1.986-0.421,2.672-1.108c0.687-0.686,1.107-1.625,1.107-2.673
			c0-1.047-0.42-1.986-1.107-2.672c-0.687-0.686-1.625-1.107-2.672-1.109c-1.048,0.001-1.986,0.423-2.674,1.109
			c-0.686,0.686-1.106,1.625-1.106,2.672c0,1.048,0.421,1.987,1.106,2.673C12.947,22.577,13.885,22.997,14.933,22.999z"/>
		<path fill="#FFFFFF" d="M21.229,9.375c-0.111-0.213-0.331-0.346-0.575-0.346h-1.869c-0.238,0-0.43,0.191-0.43,0.427v1.291
			c0,0.236-0.194,0.426-0.433,0.426h-6.021c-0.238,0-0.431-0.192-0.431-0.43V9.405c0-0.24-0.192-0.432-0.428-0.432H9.145
			c-0.241,0-0.458,0.133-0.569,0.348l-4.669,8.995c-0.815,1.569-1.24,3.313-1.24,5.085v2.098c0,1.188,0.958,2.154,2.139,2.154h0.513
			v1.241h2.201v-1.241h14.786v1.241h2.202v-1.241h0.556c1.188,0,2.153-0.964,2.153-2.153v-2.088c0-1.766-0.432-3.504-1.257-5.069
			L21.229,9.375z M9.025,19.217c0-3.262,2.645-5.906,5.908-5.907c3.262,0.001,5.906,2.646,5.908,5.907
			c-0.002,3.264-2.646,5.908-5.908,5.908C11.67,25.125,9.026,22.481,9.025,19.217z"/>
	</g>
</g>
</svg>
