<?xml version="1.0" encoding="utf-8"?>
<!-- Generator: Adobe Illustrator 25.4.1, SVG Export Plug-In . SVG Version: 6.00 Build 0)  -->
<svg version="1.1" id="レイヤー_1" xmlns="http://www.w3.org/2000/svg" xmlns:xlink="http://www.w3.org/1999/xlink" x="0px"
	 y="0px" viewBox="0 0 63 63" style="enable-background:new 0 0 63 63;" xml:space="preserve">
<style type="text/css">
	.st0{fill:#C7AA61;}
	.st1{fill:#FFFFFF;}
</style>
<g>
	<circle class="st0" cx="31.5" cy="31.5" r="31.5"/>
	<g>
		<g>
			<path class="st1" d="M47.11,42.45V18.66c0-4.23-3.43-7.66-7.66-7.66H23.77c-4.23,0-7.66,3.43-7.66,7.66v23.79
				c0,2.96,2.34,5.44,5.4,5.93l-4.81,6.71h4.28l1.97-2.76h17.32l1.97,2.76h4.28l-4.81-6.71C44.77,47.88,47.11,45.41,47.11,42.45z
				 M25.06,14.44h13.09v2.07H25.06V14.44z M20.93,21.73c0-0.98,0.78-1.77,1.75-1.77h17.87c0.96,0,1.74,0.78,1.74,1.74v7.54
				c0,0.96-0.78,1.74-1.74,1.74H22.67c-0.96,0-1.74-0.78-1.74-1.74V21.73L20.93,21.73z M22.79,43.15c-1.12,0-2.03-0.91-2.03-2.03
				c0-1.12,0.91-2.03,2.03-2.03c1.12,0,2.03,0.91,2.03,2.03C24.82,42.24,23.92,43.15,22.79,43.15z M24.97,49.58l1.37-2.07h10.83
				l1.37,2.07H24.97z M40.72,43.15c-1.12,0-2.03-0.91-2.03-2.03c0-1.12,0.91-2.03,2.03-2.03c1.12,0,2.03,0.91,2.03,2.03
				C42.75,42.24,41.84,43.15,40.72,43.15z"/>
		</g>
	</g>
</g>
</svg>
